<?xml version="1.0" encoding="UTF-8" standalone="no"?><!DOCTYPE svg PUBLIC "-//W3C//DTD SVG 1.1//EN" "http://www.w3.org/Graphics/SVG/1.1/DTD/svg11.dtd"><svg width="100%" height="100%" viewBox="0 0 740 741" version="1.1" xmlns="http://www.w3.org/2000/svg" xmlns:xlink="http://www.w3.org/1999/xlink" xml:space="preserve" xmlns:serif="http://www.serif.com/" style="fill-rule:evenodd;clip-rule:evenodd;stroke-linecap:round;stroke-linejoin:round;stroke-miterlimit:1.5;"><rect id="logo_carre_noir_et_rouge" x="0.041" y="0.314" width="739.911" height="739.911" style="fill:none;"/><g><g><path d="M370.828,223.847l24.019,-24.019c8.75,-8.75 8.75,-22.958 -0,-31.708c-8.75,-8.75 -22.958,-8.75 -31.709,0l-207.705,207.706l-63.393,-0l239.337,-239.337c26.272,-26.272 68.932,-26.272 95.204,0l239.337,239.337l-447.069,-0l93.832,-93.832l64.4,64.4c1.842,1.783 5.035,1.861 7.075,-0c0.709,-0.647 1.199,-1.478 1.512,-2.462l7.075,-40.042l39.92,-7.038c1.162,-0.312 2.078,-0.985 2.565,-1.53c1.863,-2.084 1.813,-5.034 0,-7.075l-64.4,-64.4Z"/><path d="M656.784,105.819c-0,-26.756 -21.723,-48.479 -48.479,-48.479l-485.75,0c-26.756,0 -48.479,21.723 -48.479,48.479l0,238.565c0,26.756 21.723,48.479 48.479,48.479l485.75,0c26.756,0 48.479,-21.723 48.479,-48.479l-0,-238.565Z" style="fill:none;stroke:#000;stroke-width:35.42px;"/></g><g transform="matrix(1.12074,0,0,1.12074,-6228.65,-1868.02)"><g transform="matrix(108.954,0,0,108.954,5618.8,2151.38)"><path d="M0.275,-0.166l0.045,0c0.034,0 0.064,-0.005 0.091,-0.016c0.027,-0.011 0.049,-0.025 0.068,-0.044c0.018,-0.019 0.032,-0.041 0.041,-0.067c0.01,-0.025 0.015,-0.053 0.015,-0.084c0,-0.03 -0.005,-0.058 -0.015,-0.084c-0.01,-0.026 -0.024,-0.048 -0.042,-0.067c-0.019,-0.019 -0.041,-0.033 -0.068,-0.044c-0.027,-0.011 -0.057,-0.016 -0.09,-0.016l-0.045,0l-0,0.422Zm-0.196,-0.588l0.29,0c0.051,0 0.099,0.01 0.144,0.031c0.045,0.021 0.085,0.048 0.118,0.083c0.034,0.034 0.061,0.074 0.08,0.12c0.019,0.045 0.029,0.093 0.029,0.143c-0,0.049 -0.01,0.097 -0.029,0.142c-0.019,0.046 -0.045,0.086 -0.079,0.121c-0.033,0.035 -0.073,0.062 -0.118,0.083c-0.045,0.021 -0.093,0.031 -0.145,0.031l-0.29,-0l-0,-0.754Z" style="fill-rule:nonzero;"/></g><g transform="matrix(108.954,0,0,108.954,5704.43,2151.38)"><path d="M0.437,-0.331c-0.006,-0.025 -0.018,-0.046 -0.037,-0.061c-0.019,-0.015 -0.041,-0.023 -0.068,-0.023c-0.028,0 -0.051,0.007 -0.069,0.022c-0.017,0.015 -0.028,0.035 -0.033,0.062l0.207,0Zm-0.212,0.105c-0,0.078 0.037,0.117 0.11,0.117c0.039,0 0.069,-0.016 0.089,-0.048l0.175,0c-0.035,0.117 -0.124,0.176 -0.265,0.176c-0.043,0 -0.083,-0.006 -0.119,-0.019c-0.036,-0.013 -0.067,-0.032 -0.093,-0.056c-0.025,-0.024 -0.045,-0.053 -0.059,-0.086c-0.014,-0.033 -0.021,-0.071 -0.021,-0.112c-0,-0.043 0.007,-0.081 0.02,-0.115c0.013,-0.035 0.032,-0.064 0.057,-0.088c0.025,-0.024 0.054,-0.042 0.089,-0.055c0.035,-0.013 0.075,-0.02 0.119,-0.02c0.043,0 0.082,0.007 0.117,0.02c0.035,0.013 0.064,0.031 0.088,0.056c0.024,0.025 0.042,0.055 0.055,0.091c0.013,0.035 0.019,0.075 0.019,0.12l-0,0.019l-0.381,0Z" style="fill-rule:nonzero;"/></g><g transform="matrix(108.954,0,0,108.954,5774.93,2151.38)"><path d="M0.062,-0.513l0.181,0l0,0.084c0.019,-0.031 0.043,-0.054 0.071,-0.071c0.028,-0.016 0.061,-0.024 0.098,-0.024l0.015,0c0.006,0 0.013,0.001 0.02,0.002l-0,0.173c-0.024,-0.012 -0.05,-0.018 -0.078,-0.018c-0.042,0 -0.074,0.013 -0.095,0.037c-0.021,0.026 -0.031,0.062 -0.031,0.11l-0,0.22l-0.181,0l-0,-0.513Z" style="fill-rule:nonzero;"/></g><g transform="matrix(108.954,0,0,108.954,5825.7,2151.38)"><path d="M0.062,-0.513l0.181,0l0,0.065c0.025,-0.03 0.05,-0.05 0.075,-0.061c0.025,-0.01 0.055,-0.015 0.089,-0.015c0.036,0 0.067,0.006 0.092,0.017c0.026,0.012 0.048,0.029 0.066,0.05c0.015,0.017 0.025,0.037 0.03,0.058c0.005,0.021 0.008,0.046 0.008,0.073l0,0.326l-0.181,-0l0,-0.259c0,-0.025 -0.002,-0.046 -0.006,-0.062c-0.003,-0.015 -0.01,-0.028 -0.019,-0.037c-0.008,-0.008 -0.017,-0.014 -0.027,-0.017c-0.01,-0.003 -0.021,-0.005 -0.032,-0.005c-0.031,-0 -0.054,0.009 -0.07,0.028c-0.017,0.018 -0.025,0.044 -0.025,0.078l0,0.274l-0.181,-0l0,-0.513Z" style="fill-rule:nonzero;"/></g><g transform="matrix(108.954,0,0,108.954,5898.05,2151.38)"><path d="M0.243,-0.513l0,0.513l-0.181,-0l0,-0.513l0.181,0Zm-0.193,-0.197c0,-0.014 0.003,-0.027 0.008,-0.04c0.005,-0.012 0.013,-0.023 0.022,-0.032c0.009,-0.009 0.02,-0.017 0.033,-0.022c0.012,-0.005 0.025,-0.008 0.039,-0.008c0.014,0 0.027,0.003 0.04,0.008c0.012,0.005 0.023,0.013 0.032,0.022c0.009,0.009 0.017,0.02 0.022,0.032c0.005,0.013 0.008,0.026 0.008,0.04c0,0.014 -0.003,0.027 -0.008,0.039c-0.005,0.013 -0.013,0.024 -0.022,0.033c-0.009,0.009 -0.02,0.017 -0.033,0.022c-0.012,0.005 -0.025,0.008 -0.039,0.008c-0.014,-0 -0.027,-0.003 -0.039,-0.008c-0.013,-0.005 -0.024,-0.013 -0.033,-0.022c-0.009,-0.009 -0.017,-0.02 -0.022,-0.033c-0.005,-0.012 -0.008,-0.025 -0.008,-0.039Z" style="fill-rule:nonzero;"/></g><g transform="matrix(108.954,0,0,108.954,5931.28,2151.38)"><path d="M0.437,-0.331c-0.006,-0.025 -0.018,-0.046 -0.037,-0.061c-0.019,-0.015 -0.041,-0.023 -0.068,-0.023c-0.028,0 -0.051,0.007 -0.069,0.022c-0.017,0.015 -0.028,0.035 -0.033,0.062l0.207,0Zm-0.212,0.105c-0,0.078 0.037,0.117 0.11,0.117c0.039,0 0.069,-0.016 0.089,-0.048l0.175,0c-0.035,0.117 -0.124,0.176 -0.265,0.176c-0.043,0 -0.083,-0.006 -0.119,-0.019c-0.036,-0.013 -0.067,-0.032 -0.093,-0.056c-0.025,-0.024 -0.045,-0.053 -0.059,-0.086c-0.014,-0.033 -0.021,-0.071 -0.021,-0.112c-0,-0.043 0.007,-0.081 0.02,-0.115c0.013,-0.035 0.032,-0.064 0.057,-0.088c0.025,-0.024 0.054,-0.042 0.089,-0.055c0.035,-0.013 0.075,-0.02 0.119,-0.02c0.043,0 0.082,0.007 0.117,0.02c0.035,0.013 0.064,0.031 0.088,0.056c0.024,0.025 0.042,0.055 0.055,0.091c0.013,0.035 0.019,0.075 0.019,0.12l-0,0.019l-0.381,0Z" style="fill-rule:nonzero;"/></g><g transform="matrix(108.954,0,0,108.954,6001.77,2151.38)"><path d="M0.062,-0.513l0.181,0l0,0.084c0.019,-0.031 0.043,-0.054 0.071,-0.071c0.028,-0.016 0.061,-0.024 0.098,-0.024l0.015,0c0.006,0 0.013,0.001 0.02,0.002l-0,0.173c-0.024,-0.012 -0.05,-0.018 -0.078,-0.018c-0.042,0 -0.074,0.013 -0.095,0.037c-0.021,0.026 -0.031,0.062 -0.031,0.11l-0,0.22l-0.181,0l-0,-0.513Z" style="fill-rule:nonzero;"/></g><g transform="matrix(108.954,0,0,108.954,5618.8,2263.61)"><path d="M0.622,-0.502c-0.045,-0.055 -0.101,-0.083 -0.168,-0.083c-0.029,0 -0.056,0.005 -0.081,0.016c-0.025,0.011 -0.047,0.025 -0.065,0.043c-0.018,0.019 -0.032,0.041 -0.042,0.066c-0.011,0.025 -0.016,0.053 -0.016,0.082c0,0.03 0.005,0.058 0.016,0.083c0.01,0.025 0.024,0.047 0.043,0.066c0.018,0.019 0.039,0.033 0.064,0.044c0.025,0.011 0.051,0.016 0.08,0.016c0.063,-0 0.119,-0.027 0.169,-0.08l0,0.232l-0.02,0.007c-0.03,0.011 -0.058,0.018 -0.084,0.023c-0.026,0.005 -0.052,0.008 -0.077,0.008c-0.052,-0 -0.102,-0.01 -0.15,-0.03c-0.047,-0.019 -0.089,-0.047 -0.126,-0.083c-0.036,-0.035 -0.065,-0.078 -0.087,-0.127c-0.022,-0.049 -0.033,-0.102 -0.033,-0.16c-0,-0.058 0.011,-0.111 0.032,-0.16c0.022,-0.048 0.051,-0.09 0.087,-0.125c0.037,-0.035 0.079,-0.062 0.127,-0.082c0.048,-0.019 0.098,-0.029 0.151,-0.029c0.03,-0 0.059,0.003 0.088,0.009c0.029,0.007 0.06,0.017 0.092,0.03l0,0.234Z" style="fill-rule:nonzero;"/></g><g transform="matrix(108.954,0,0,108.954,5691.47,2263.61)"><path d="M0.062,-0.83l0.181,0l0,0.382c0.025,-0.03 0.05,-0.05 0.075,-0.061c0.025,-0.01 0.055,-0.015 0.089,-0.015c0.065,0 0.114,0.018 0.146,0.054c0.033,0.035 0.05,0.083 0.05,0.144l-0,0.326l-0.181,0l-0,-0.259c-0,-0.026 -0.002,-0.047 -0.006,-0.063c-0.004,-0.016 -0.011,-0.028 -0.02,-0.037c-0.016,-0.014 -0.035,-0.021 -0.058,-0.021c-0.031,0 -0.054,0.009 -0.071,0.028c-0.016,0.018 -0.024,0.044 -0.024,0.078l-0,0.274l-0.181,0l-0,-0.83Z" style="fill-rule:nonzero;"/></g><g transform="matrix(108.954,0,0,108.954,5763.81,2263.61)"><path d="M0.23,-0.258c0,0.017 0.003,0.032 0.009,0.047c0.006,0.014 0.014,0.026 0.024,0.037c0.011,0.011 0.023,0.019 0.037,0.025c0.015,0.006 0.03,0.009 0.047,0.009c0.016,0 0.031,-0.003 0.046,-0.009c0.014,-0.006 0.026,-0.014 0.037,-0.025c0.01,-0.011 0.018,-0.023 0.025,-0.037c0.006,-0.014 0.009,-0.029 0.009,-0.045c0,-0.016 -0.003,-0.031 -0.009,-0.045c-0.007,-0.015 -0.015,-0.027 -0.025,-0.038c-0.011,-0.011 -0.023,-0.019 -0.037,-0.025c-0.015,-0.006 -0.03,-0.009 -0.046,-0.009c-0.017,0 -0.032,0.003 -0.046,0.009c-0.015,0.006 -0.027,0.014 -0.037,0.025c-0.011,0.011 -0.019,0.023 -0.025,0.036c-0.006,0.014 -0.009,0.029 -0.009,0.045Zm0.228,-0.255l0.182,-0l0,0.513l-0.182,-0l0,-0.057c-0.039,0.049 -0.091,0.073 -0.157,0.073c-0.037,-0 -0.072,-0.007 -0.103,-0.021c-0.031,-0.013 -0.059,-0.032 -0.082,-0.057c-0.023,-0.025 -0.042,-0.054 -0.055,-0.087c-0.013,-0.033 -0.019,-0.07 -0.019,-0.109c-0,-0.037 0.006,-0.072 0.019,-0.105c0.013,-0.033 0.03,-0.061 0.053,-0.086c0.023,-0.025 0.05,-0.044 0.081,-0.059c0.031,-0.014 0.066,-0.021 0.104,-0.021c0.064,-0 0.117,0.022 0.159,0.067l-0,-0.051Z" style="fill-rule:nonzero;"/></g><g transform="matrix(108.954,0,0,108.954,5840.19,2263.61)"><path d="M0.471,-0.255c0,-0.016 -0.003,-0.031 -0.009,-0.045c-0.005,-0.015 -0.013,-0.027 -0.024,-0.038c-0.011,-0.011 -0.023,-0.019 -0.037,-0.026c-0.015,-0.006 -0.03,-0.009 -0.047,-0.009c-0.016,0 -0.031,0.003 -0.045,0.009c-0.014,0.006 -0.026,0.014 -0.037,0.025c-0.01,0.011 -0.018,0.023 -0.025,0.037c-0.006,0.015 -0.009,0.03 -0.009,0.046c-0,0.016 0.003,0.031 0.009,0.045c0.006,0.014 0.014,0.026 0.025,0.037c0.011,0.01 0.023,0.018 0.037,0.025c0.015,0.006 0.03,0.009 0.046,0.009c0.016,0 0.031,-0.003 0.045,-0.009c0.014,-0.006 0.026,-0.014 0.036,-0.025c0.011,-0.011 0.019,-0.023 0.025,-0.037c0.007,-0.014 0.01,-0.029 0.01,-0.044Zm-0.228,0.511l-0.181,0l-0,-0.769l0.181,0l-0,0.057c0.039,-0.049 0.091,-0.073 0.158,-0.073c0.037,0 0.071,0.007 0.102,0.021c0.032,0.015 0.06,0.034 0.083,0.059c0.023,0.025 0.041,0.054 0.054,0.087c0.013,0.033 0.02,0.069 0.02,0.107c-0,0.038 -0.007,0.073 -0.02,0.106c-0.013,0.033 -0.031,0.061 -0.054,0.086c-0.023,0.025 -0.05,0.044 -0.081,0.058c-0.031,0.014 -0.065,0.021 -0.102,0.021c-0.064,0 -0.117,-0.022 -0.16,-0.066l-0,0.306Z" style="fill-rule:nonzero;"/></g><g transform="matrix(108.954,0,0,108.954,5916.57,2263.61)"><path d="M0.243,-0.513l0,0.513l-0.181,-0l0,-0.513l0.181,0Zm-0.193,-0.197c0,-0.014 0.003,-0.027 0.008,-0.04c0.005,-0.012 0.013,-0.023 0.022,-0.032c0.009,-0.009 0.02,-0.017 0.033,-0.022c0.012,-0.005 0.025,-0.008 0.039,-0.008c0.014,0 0.027,0.003 0.04,0.008c0.012,0.005 0.023,0.013 0.032,0.022c0.009,0.009 0.017,0.02 0.022,0.032c0.005,0.013 0.008,0.026 0.008,0.04c0,0.014 -0.003,0.027 -0.008,0.039c-0.005,0.013 -0.013,0.024 -0.022,0.033c-0.009,0.009 -0.02,0.017 -0.033,0.022c-0.012,0.005 -0.025,0.008 -0.039,0.008c-0.014,-0 -0.027,-0.003 -0.039,-0.008c-0.013,-0.005 -0.024,-0.013 -0.033,-0.022c-0.009,-0.009 -0.017,-0.02 -0.022,-0.033c-0.005,-0.012 -0.008,-0.025 -0.008,-0.039Z" style="fill-rule:nonzero;"/></g><g transform="matrix(108.954,0,0,108.954,5949.8,2263.61)"><path d="M0.264,-0.362l0,0.362l-0.181,-0l-0,-0.362l-0.06,0l-0,-0.151l0.06,0l-0,-0.154l0.181,0l0,0.154l0.103,0l0,0.151l-0.103,0Z" style="fill-rule:nonzero;"/></g><g transform="matrix(108.954,0,0,108.954,5990.44,2263.61)"><path d="M0.062,-0.513l0.181,0l0,0.084c0.019,-0.031 0.043,-0.054 0.071,-0.071c0.028,-0.016 0.061,-0.024 0.098,-0.024l0.015,0c0.006,0 0.013,0.001 0.02,0.002l-0,0.173c-0.024,-0.012 -0.05,-0.018 -0.078,-0.018c-0.042,0 -0.074,0.013 -0.095,0.037c-0.021,0.026 -0.031,0.062 -0.031,0.11l-0,0.22l-0.181,0l-0,-0.513Z" style="fill-rule:nonzero;"/></g><g transform="matrix(108.954,0,0,108.954,6041.87,2263.61)"><path d="M0.437,-0.331c-0.006,-0.025 -0.018,-0.046 -0.037,-0.061c-0.019,-0.015 -0.041,-0.023 -0.068,-0.023c-0.028,0 -0.051,0.007 -0.069,0.022c-0.017,0.015 -0.028,0.035 -0.033,0.062l0.207,0Zm-0.212,0.105c-0,0.078 0.037,0.117 0.11,0.117c0.039,0 0.069,-0.016 0.089,-0.048l0.175,0c-0.035,0.117 -0.124,0.176 -0.265,0.176c-0.043,0 -0.083,-0.006 -0.119,-0.019c-0.036,-0.013 -0.067,-0.032 -0.093,-0.056c-0.025,-0.024 -0.045,-0.053 -0.059,-0.086c-0.014,-0.033 -0.021,-0.071 -0.021,-0.112c-0,-0.043 0.007,-0.081 0.02,-0.115c0.013,-0.035 0.032,-0.064 0.057,-0.088c0.025,-0.024 0.054,-0.042 0.089,-0.055c0.035,-0.013 0.075,-0.02 0.119,-0.02c0.043,0 0.082,0.007 0.117,0.02c0.035,0.013 0.064,0.031 0.088,0.056c0.024,0.025 0.042,0.055 0.055,0.091c0.013,0.035 0.019,0.075 0.019,0.12l-0,0.019l-0.381,0Z" style="fill-rule:nonzero;"/></g><g transform="matrix(108.954,0,0,108.954,6112.36,2263.61)"><path d="M0.053,-0.096c0,-0.016 0.003,-0.031 0.009,-0.046c0.006,-0.014 0.014,-0.026 0.025,-0.037c0.011,-0.011 0.023,-0.019 0.038,-0.025c0.014,-0.006 0.029,-0.009 0.045,-0.009c0.016,0 0.031,0.003 0.046,0.009c0.014,0.006 0.026,0.014 0.037,0.025c0.011,0.011 0.019,0.023 0.025,0.038c0.006,0.014 0.009,0.029 0.009,0.045c0,0.016 -0.003,0.031 -0.009,0.046c-0.006,0.014 -0.014,0.026 -0.025,0.037c-0.011,0.011 -0.023,0.019 -0.037,0.025c-0.015,0.006 -0.03,0.009 -0.046,0.009c-0.016,0 -0.031,-0.003 -0.045,-0.009c-0.015,-0.006 -0.027,-0.014 -0.038,-0.025c-0.011,-0.011 -0.019,-0.023 -0.025,-0.037c-0.006,-0.015 -0.009,-0.03 -0.009,-0.046Z" style="fill:#f52f19;fill-rule:nonzero;"/></g></g></g></svg>